<svg xmlns="http://www.w3.org/2000/svg" viewBox="0 0 512 512" width="512" height="512">
  <!-- Breadboard Studio — flat breadboard glyph -->
  <rect width="512" height="512" rx="116" fill="#15171c"/>
  <!-- board body -->
  <rect x="76" y="136" width="360" height="240" rx="36" fill="#e9e4d6"/>
  <!-- power rails -->
  <rect x="108" y="164" width="296" height="10" rx="5" fill="#ff453a"/>
  <rect x="108" y="338" width="296" height="10" rx="5" fill="#0a84ff"/>
  <!-- center channel -->
  <rect x="76" y="250" width="360" height="12" fill="#d4cebc"/>
  <!-- holes: top block -->
  <g fill="#3a3f4a">
    <circle cx="128" cy="206" r="9"/><circle cx="178" cy="206" r="9"/><circle cx="228" cy="206" r="9"/><circle cx="278" cy="206" r="9"/><circle cx="328" cy="206" r="9"/><circle cx="378" cy="206" r="9"/>
    <circle cx="128" cy="236" r="9"/><circle cx="178" cy="236" r="9"/><circle cx="228" cy="236" r="9"/><circle cx="278" cy="236" r="9"/><circle cx="328" cy="236" r="9"/><circle cx="378" cy="236" r="9"/>
    <circle cx="128" cy="276" r="9"/><circle cx="178" cy="276" r="9"/><circle cx="228" cy="276" r="9"/><circle cx="278" cy="276" r="9"/><circle cx="328" cy="276" r="9"/><circle cx="378" cy="276" r="9"/>
    <circle cx="128" cy="306" r="9"/><circle cx="178" cy="306" r="9"/><circle cx="228" cy="306" r="9"/><circle cx="278" cy="306" r="9"/><circle cx="328" cy="306" r="9"/><circle cx="378" cy="306" r="9"/>
  </g>
  <!-- a jumper wire arcing over the channel -->
  <path d="M178 236 C 178 150, 328 150, 328 276" fill="none" stroke="#30d158" stroke-width="18" stroke-linecap="round"/>
</svg>
